<svg xmlns="http://www.w3.org/2000/svg" viewBox="0 0 64 64" width="64" height="64">
  <defs>
    <linearGradient id="g" x1="0" y1="0" x2="1" y2="1">
      <stop offset="0%" stop-color="#1fd1ff" />
      <stop offset="100%" stop-color="#0a7aff" />
    </linearGradient>
  </defs>
  <circle cx="32" cy="32" r="30" fill="#0d1324" />
  <path
    fill="url(#g)"
    d="M58 36v-8l-6.2-1.5a20.9 20.9 0 0 0-1.9-4.5l3.4-5.3-5.6-5.6-5.3 3.4a20.9 20.9 0 0 0-4.5-1.9L36 6h-8l-1.5 6.2a20.9 20.9 0 0 0-4.5 1.9l-5.3-3.4-5.6 5.6 3.4 5.3a20.9 20.9 0 0 0-1.9 4.5L6 28v8l6.2 1.5a20.9 20.9 0 0 0 1.9 4.5l-3.4 5.3 5.6 5.6 5.3-3.4a20.9 20.9 0 0 0 4.5 1.9L28 58h8l1.5-6.2a20.9 20.9 0 0 0 4.5-1.9l5.3 3.4 5.6-5.6-3.4-5.3a20.9 20.9 0 0 0 1.9-4.5L58 36zM32 42a10 10 0 1 1 0-20 10 10 0 0 1 0 20z"
  />
</svg>